<svg xmlns="http://www.w3.org/2000/svg" width="340" height="431" viewBox="0 0 340 431" version="1.1">
	<path d="M 105.216 42.281 C 101.090 46.460, 100 48.239, 100 50.800 C 100 53.827, 99.821 53.995, 97.250 53.373 C 95.737 53.007, 93.550 52.358, 92.389 51.931 C 90.672 51.300, 89.319 52.127, 85.139 56.359 C 80.858 60.694, 80 62.167, 80 65.184 L 80 68.804 75.295 67.388 L 70.591 65.972 65.295 71.202 L 60 76.432 60 89.824 L 60 103.217 57.250 102.546 C 55.738 102.177, 53.600 101.675, 52.500 101.430 C 51.102 101.120, 48.919 102.515, 45.250 106.064 L 40 111.142 40 124.571 C 40 131.957, 39.888 137.995, 39.750 137.989 C 39.612 137.983, 37.421 137.347, 34.880 136.576 L 30.260 135.174 25.130 140.368 C 21.095 144.454, 20 146.250, 20 148.781 C 20 152.303, 19.366 152.539, 14.019 151.006 C 10.681 150.048, 10.355 150.205, 5.276 155.221 L 0 160.432 0 180.145 L 0 199.858 5.250 201.368 C 8.138 202.198, 12.622 203.405, 15.216 204.049 L 19.932 205.220 20.216 215.339 L 20.500 225.458 30 228.053 L 39.500 230.647 39.764 260.664 L 40.029 290.680 45.764 292.254 C 48.919 293.120, 53.413 294.335, 55.750 294.953 L 60 296.077 60 306.011 L 60 315.944 65.250 317.432 C 68.138 318.251, 72.638 319.442, 75.250 320.079 L 80 321.237 80 331.389 L 80 341.541 89.750 344.084 L 99.500 346.627 99.785 356.814 C 99.942 362.416, 100.251 367, 100.472 367 C 100.693 367, 109.340 369.287, 119.687 372.083 C 130.034 374.878, 141.875 378.057, 146 379.146 C 150.125 380.236, 163.625 383.843, 176 387.162 C 188.375 390.481, 212.320 396.896, 229.212 401.418 L 259.924 409.640 264.962 404.538 C 269.118 400.330, 270 398.812, 270 395.870 L 270 392.303 294.750 399.022 L 319.500 405.741 324.750 400.654 L 330 395.568 330 375.510 L 330 355.451 320.250 352.976 L 310.500 350.500 310.239 310.411 L 309.978 270.322 304.239 268.746 C 301.082 267.880, 296.587 266.665, 294.250 266.047 C 290.285 264.998, 290 264.691, 290 261.461 C 290 259.558, 290.251 258, 290.557 258 C 290.864 258, 293.148 258.512, 295.633 259.138 L 300.152 260.276 305.076 255.425 L 310 250.575 310 236.788 C 310 229.204, 310.113 223.005, 310.250 223.011 C 310.387 223.017, 312.579 223.653, 315.120 224.424 L 319.740 225.826 324.870 220.632 L 330 215.437 329.990 195.469 L 329.980 175.500 310.240 170.218 C 299.383 167.314, 289.825 164.766, 289 164.557 C 288.175 164.349, 283.563 163.183, 278.750 161.966 L 270 159.754 270 149.607 L 270 139.459 260.250 136.916 L 250.500 134.373 250.216 124.309 L 249.933 114.245 244.216 112.685 C 241.072 111.827, 236.588 110.629, 234.250 110.024 L 230 108.923 229.992 98.711 L 229.983 88.500 219.992 86.110 L 210 83.721 210 73.571 L 210 63.422 197.250 60.074 C 190.238 58.233, 180.675 55.670, 176 54.378 C 163.694 50.978, 111.260 37, 110.812 37 C 110.603 37, 108.085 39.377, 105.216 42.281 M 100 96.862 L 100 126.858 105.250 128.368 C 108.138 129.198, 112.632 130.407, 115.239 131.055 L 119.978 132.232 120.239 172.331 L 120.500 212.430 147.500 219.663 C 162.350 223.641, 175.512 227.153, 176.750 227.467 C 178.970 228.031, 179 227.908, 179 218.129 L 179 208.219 170.750 206.055 C 166.213 204.864, 161.938 203.704, 161.250 203.477 C 160.287 203.158, 160 196.256, 160 173.464 C 160 145.741, 160.111 143.898, 161.750 144.390 C 170.241 146.936, 178.413 148.863, 179.049 148.470 C 179.475 148.207, 184.025 149.117, 189.162 150.493 C 194.298 151.869, 198.613 152.996, 198.750 152.997 C 198.887 152.999, 199 139.570, 199 123.156 L 199 93.311 189.750 90.854 L 180.500 88.397 179.969 108.449 L 179.437 128.500 179.219 108.317 C 179.021 90.074, 178.832 88.084, 177.250 87.610 C 174.422 86.762, 160.565 83, 160.270 83 C 160.122 83, 159.902 92.112, 159.781 103.250 L 159.563 123.500 159.031 103.034 L 158.500 82.568 150.500 80.314 C 146.100 79.075, 141.947 78.047, 141.271 78.030 C 140.349 78.008, 139.969 82.937, 139.749 97.750 L 139.455 117.500 139.228 97.389 L 139 77.278 129.750 74.802 L 120.500 72.325 119.969 92.412 L 119.437 112.500 119.219 92.328 L 119 72.155 115.750 71.134 C 113.963 70.572, 110.475 69.610, 108 68.997 C 105.525 68.383, 102.713 67.652, 101.750 67.373 C 100.111 66.897, 100 68.767, 100 96.862 M 80.229 101.660 L 80.500 121.319 86.737 123.077 C 90.167 124.044, 94.329 125.133, 95.987 125.497 L 99 126.159 99 106.308 L 99 86.458 90.250 84.203 C 85.438 82.963, 81.153 81.960, 80.729 81.974 C 80.305 81.988, 80.080 90.847, 80.229 101.660 M 200.235 143.577 L 200.500 173.319 206.737 175.077 C 210.167 176.044, 214.336 177.135, 216.002 177.500 L 219.030 178.166 218.765 148.423 L 218.500 118.681 212.263 116.923 C 208.833 115.956, 204.664 114.865, 202.998 114.500 L 199.970 113.834 200.235 143.577 M 60.566 116.943 C 61.798 118.144, 78.072 122.261, 78.782 121.551 C 79.085 121.248, 78.921 120.994, 78.417 120.988 C 77.913 120.981, 73.480 119.863, 68.566 118.504 C 63.653 117.145, 60.053 116.442, 60.566 116.943 M 59.804 156.250 C 59.648 172.466, 59.498 174.427, 59.054 166.093 L 58.500 155.685 50 153.389 C 45.325 152.127, 41.163 151.072, 40.750 151.047 C 40.337 151.021, 40 164.655, 40 181.344 L 40 211.689 49.250 214.148 L 58.500 216.607 59.052 206.053 C 59.356 200.249, 59.694 213.960, 59.802 236.521 L 60 277.542 68.750 279.797 C 73.563 281.037, 77.838 282.040, 78.250 282.026 C 78.662 282.012, 79.105 268.387, 79.233 251.750 L 79.466 221.500 79.983 261.909 L 80.500 302.319 86.737 304.077 C 90.167 305.044, 94.313 306.129, 95.951 306.489 L 98.928 307.143 99.253 296.822 C 99.432 291.145, 99.673 295.768, 99.789 307.096 L 100 327.691 109.468 330.164 L 118.936 332.636 119.256 322.068 C 119.433 316.199, 119.670 320.474, 119.788 331.683 C 119.980 349.929, 120.168 351.916, 121.750 352.390 C 124.578 353.238, 138.435 357, 138.730 357 C 138.878 357, 139.088 352.387, 139.196 346.750 L 139.391 336.500 139.946 346.968 L 140.500 357.436 148.500 359.688 C 152.900 360.926, 157.046 361.953, 157.714 361.970 C 158.563 361.991, 159.026 359.070, 159.254 352.250 L 159.581 342.500 159.791 352.611 L 160 362.722 169.250 365.198 L 178.500 367.675 179.031 347.588 C 179.404 333.488, 179.628 330.807, 179.781 338.594 L 180 349.689 189.250 352.147 L 198.500 354.606 199.051 343.553 L 199.601 332.500 199.801 343.683 C 199.973 353.362, 200.235 354.936, 201.750 355.390 C 204.578 356.238, 218.435 360, 218.730 360 C 218.878 360, 219.089 350.663, 219.198 339.250 C 219.359 322.274, 219.496 320.495, 219.948 329.468 L 220.500 340.436 228.500 342.688 C 232.900 343.926, 237.063 344.953, 237.750 344.970 C 238.731 344.994, 239.051 334.077, 239.235 294.250 C 239.402 258.336, 239.552 252.596, 239.749 274.615 L 240.028 305.729 249.264 308.201 L 258.500 310.673 258.764 280.337 C 259.069 245.439, 257.681 248.673, 270.750 252.403 L 279 254.757 279 234.879 C 279 223.945, 279.263 215, 279.583 215 C 280.463 215, 295.610 218.913, 297.421 219.608 C 298.795 220.135, 299 218.907, 299 210.146 L 299 200.077 294.750 198.966 C 292.413 198.354, 283.908 196.087, 275.852 193.927 C 267.796 191.767, 260.949 190, 260.637 190 C 260.325 190, 259.924 194.613, 259.746 200.250 L 259.422 210.500 259.211 199.978 L 259 189.456 249.500 186.881 L 240 184.307 239.802 194.904 L 239.605 205.500 239.052 194.588 L 238.500 183.676 232.263 181.920 C 228.833 180.955, 224.671 179.867, 223.013 179.503 L 220 178.841 219.772 209.171 C 219.588 233.593, 219.487 235.570, 219.251 219.321 L 218.959 199.142 215.730 198.122 C 210.006 196.314, 182.241 189, 181.102 189 C 180.321 189, 179.939 200.588, 179.789 228.750 C 179.673 250.613, 179.433 263.913, 179.255 258.306 C 178.982 249.716, 178.662 248.032, 177.216 247.599 C 174.394 246.754, 160.562 243, 160.270 243 C 160.122 243, 160 247.548, 160 253.107 C 160 262.270, 159.839 263.152, 158.273 262.551 C 157.324 262.187, 152.601 260.901, 147.779 259.694 L 139.011 257.500 139.005 247.414 L 139 237.328 133.250 235.750 C 130.088 234.882, 125.588 233.665, 123.250 233.047 L 119 231.923 119 212 L 119 192.077 115 191.039 C 112.800 190.467, 109.172 189.525, 106.937 188.945 C 104.703 188.364, 102.228 187.641, 101.437 187.338 C 100.252 186.883, 99.966 188.601, 99.804 197.143 L 99.609 207.500 99.054 197.047 L 98.500 186.594 89.355 184.169 L 80.211 181.745 79.483 161.365 L 78.755 140.985 73.128 139.425 C 70.032 138.567, 66.195 137.445, 64.601 136.932 C 63.006 136.420, 61.319 136, 60.851 136 C 60.383 136, 59.912 145.113, 59.804 156.250 M 220.500 139.689 C 221.732 140.900, 238.014 145.319, 238.704 144.629 C 238.978 144.356, 237.469 143.682, 235.351 143.133 C 224.578 140.340, 222.744 139.843, 221.187 139.297 C 220.075 138.907, 219.841 139.040, 220.500 139.689 M 220.550 159.898 C 221.512 160.808, 236.023 165, 238.211 165 C 241.112 165, 236.886 163.164, 229.380 161.164 C 220.359 158.760, 219.165 158.589, 220.550 159.898 M 20.215 176.237 L 20.500 186.474 26.728 188.153 C 30.153 189.076, 34.315 190.130, 35.978 190.495 L 39 191.159 39 180.780 L 39 170.401 30.609 168.201 C 25.994 166.990, 21.703 166, 21.074 166 C 20.271 166, 20.015 169.054, 20.215 176.237 M 199.374 223.500 C 199.376 229.550, 199.541 231.896, 199.740 228.713 C 199.939 225.531, 199.937 220.581, 199.736 217.713 C 199.535 214.846, 199.372 217.450, 199.374 223.500 M 99.365 276.500 C 99.368 282, 99.536 284.122, 99.738 281.216 C 99.941 278.311, 99.939 273.811, 99.734 271.216 C 99.528 268.622, 99.363 271, 99.365 276.500 M 261.500 291 C 262.600 291.473, 264.175 291.859, 265 291.859 C 265.945 291.859, 265.761 291.542, 264.500 291 C 263.400 290.527, 261.825 290.141, 261 290.141 C 260.055 290.141, 260.239 290.458, 261.500 291 M 267.813 292.683 C 268.534 292.972, 269.397 292.936, 269.729 292.604 C 270.061 292.272, 269.471 292.036, 268.417 292.079 C 267.252 292.127, 267.015 292.364, 267.813 292.683 M 271.813 293.683 C 272.534 293.972, 273.397 293.936, 273.729 293.604 C 274.061 293.272, 273.471 293.036, 272.417 293.079 C 271.252 293.127, 271.015 293.364, 271.813 293.683 M 275 294.383 C 275 294.594, 275.901 295.002, 277.001 295.290 C 278.102 295.578, 278.751 295.405, 278.442 294.907 C 277.904 294.036, 275 293.594, 275 294.383 M 219.365 308.500 C 219.368 314, 219.536 316.122, 219.738 313.216 C 219.941 310.311, 219.939 305.811, 219.734 303.216 C 219.528 300.622, 219.363 303, 219.365 308.500 M 159.370 313 C 159.370 318.775, 159.535 321.137, 159.737 318.250 C 159.939 315.363, 159.939 310.637, 159.737 307.750 C 159.535 304.863, 159.370 307.225, 159.370 313 M 261 310.939 C 261.825 311.422, 265.425 312.557, 269 313.461 C 272.575 314.366, 276.400 315.357, 277.500 315.665 C 278.868 316.048, 279.184 315.896, 278.500 315.185 C 277.950 314.614, 273.825 313.213, 269.333 312.073 C 260.479 309.825, 258.680 309.581, 261 310.939 M 240 324.793 C 240 325.719, 258.125 331.057, 258.917 330.364 C 259.771 329.617, 258.093 328.899, 250.892 326.933 C 246.827 325.823, 242.713 324.678, 241.750 324.390 C 240.787 324.101, 240 324.283, 240 324.793 M 261 330.939 C 261.825 331.422, 265.425 332.557, 269 333.461 C 272.575 334.366, 276.288 335.337, 277.250 335.620 C 278.212 335.903, 279 335.745, 279 335.268 C 279 334.791, 275.224 333.411, 270.609 332.201 C 261.612 329.841, 258.406 329.420, 261 330.939 M 240 344.793 C 240 345.719, 258.125 351.057, 258.917 350.364 C 259.771 349.617, 258.093 348.899, 250.892 346.933 C 246.827 345.823, 242.713 344.678, 241.750 344.390 C 240.787 344.101, 240 344.283, 240 344.793 M 261 350.939 C 261.825 351.422, 265.425 352.557, 269 353.461 C 272.575 354.366, 276.288 355.337, 277.250 355.620 C 278.212 355.903, 279 355.745, 279 355.268 C 279 354.791, 275.224 353.411, 270.609 352.201 C 261.612 349.841, 258.406 349.420, 261 350.939 M 280 355.664 C 280 356.660, 297.801 361.533, 298.583 360.751 C 298.862 360.472, 295.400 359.248, 290.890 358.031 C 286.379 356.814, 282.084 355.586, 281.345 355.302 C 280.605 355.018, 280 355.181, 280 355.664 M 220.550 359.898 C 221.512 360.808, 236.023 365, 238.211 365 C 241.176 365, 236.844 363.092, 229.432 361.133 C 220.479 358.766, 219.159 358.583, 220.550 359.898 M 240 364.793 C 240 365.719, 258.125 371.057, 258.917 370.364 C 259.771 369.617, 258.093 368.899, 250.892 366.933 C 246.827 365.823, 242.713 364.678, 241.750 364.390 C 240.787 364.101, 240 364.283, 240 364.793" stroke="none" fill="black" fill-rule="evenodd"/>
</svg>